<?xml version="1.0" encoding="UTF-8"?>
<svg width="128pt" height="128pt" version="1.1" viewBox="0 0 128 128" xmlns="http://www.w3.org/2000/svg">
 <g fill="#fff">
  <path d="m109.31 18.434h-90.625c-6.7852 0-12.289 5.5039-12.289 12.285v37.121c0 6.7852 5.5039 12.289 12.289 12.289h90.625c6.7852 0 12.289-5.5039 12.289-12.289v-37.121c0-6.7812-5.5039-12.285-12.289-12.285zm4.3516 49.406c0 2.3047-1.9219 4.2227-4.2227 4.2227h-90.754c-2.3047 0-4.2227-1.9219-4.2227-4.2227v-37.121c0-2.3047 1.9219-4.2227 4.2227-4.2227h90.625c2.3047 0 4.2227 1.9219 4.2227 4.2227v37.121z"/>
  <path d="m72.961 92.414-8.9609 7.8086-8.9609-7.8086c-1.6641-1.4062-4.2227-1.2812-5.6328 0.38281-1.4062 1.6641-1.2812 4.2227 0.38281 5.6328l11.52 10.113c0.76953 0.64062 1.6641 1.0234 2.6875 1.0234 0.89453 0 1.9219-0.38281 2.6875-1.0234l11.52-10.113c1.6641-1.4062 1.793-3.9688 0.38281-5.6328-1.5312-1.6602-3.9609-1.918-5.625-0.38281z"/>
  <path d="m29.953 30.465h-3.9688c-0.89453 0-1.5352 0.76953-1.5352 1.5352v3.9688c0 0.89453 0.76953 1.5352 1.5352 1.5352h3.9688c0.89453 0 1.5352-0.76953 1.5352-1.5352v-3.9688c0.12891-0.76953-0.64062-1.5352-1.5352-1.5352z"/>
  <path d="m40.449 37.633h3.9688c0.89453 0 1.5352-0.76953 1.5352-1.5352v-3.9688c0-0.89453-0.76953-1.5352-1.5352-1.5352h-3.9688c-0.89453 0-1.5352 0.76953-1.5352 1.5352v3.9688c-0.12891 0.89453 0.63672 1.5352 1.5352 1.5352z"/>
  <path d="m54.785 37.633h3.9688c0.89453 0 1.5352-0.76953 1.5352-1.5352v-3.9688c0-0.89453-0.76953-1.5352-1.5352-1.5352h-3.9688c-0.89453 0-1.5352 0.76953-1.5352 1.5352v3.9688c-0.003906 0.89453 0.63672 1.5352 1.5352 1.5352z"/>
  <path d="m69.246 37.633h3.9688c0.89453 0 1.5352-0.76953 1.5352-1.5352v-3.9688c0-0.89453-0.76953-1.5352-1.5352-1.5352h-3.9688c-0.89453 0-1.5352 0.76953-1.5352 1.5352v3.9688c-0.125 0.89453 0.64062 1.5352 1.5352 1.5352z"/>
  <path d="m87.551 30.465h-3.9688c-0.89453 0-1.5352 0.76953-1.5352 1.5352v3.9688c0 0.89453 0.76953 1.5352 1.5352 1.5352h3.9688c0.89453 0 1.5352-0.76953 1.5352-1.5352v-3.9688c0.12891-0.76953-0.63672-1.5352-1.5352-1.5352z"/>
  <path d="m102.02 30.465h-3.9688c-0.89453 0-1.5352 0.76953-1.5352 1.5352v3.9688c0 0.89453 0.76953 1.5352 1.5352 1.5352h3.9688c0.89453 0 1.5352-0.76953 1.5352-1.5352v-3.9688c0-0.76953-0.64062-1.5352-1.5352-1.5352z"/>
  <path d="m29.953 44.93h-3.9688c-0.89453 0-1.5352 0.76953-1.5352 1.5352v3.9688c0 0.89453 0.76953 1.5352 1.5352 1.5352h3.9688c0.89453 0 1.5352-0.76953 1.5352-1.5352v-3.9688c0.12891-0.89844-0.64062-1.5352-1.5352-1.5352z"/>
  <path d="m40.449 52.098h3.9688c0.89453 0 1.5352-0.76953 1.5352-1.5352v-3.9688c0-0.89453-0.76953-1.5352-1.5352-1.5352h-3.9688c-0.89453 0-1.5352 0.76953-1.5352 1.5352v3.9688c-0.12891 0.76562 0.63672 1.5352 1.5352 1.5352z"/>
  <path d="m54.785 52.098h3.9688c0.89453 0 1.5352-0.76953 1.5352-1.5352v-3.9688c0-0.89453-0.76953-1.5352-1.5352-1.5352h-3.9688c-0.89453 0-1.5352 0.76953-1.5352 1.5352v3.9688c-0.003906 0.76562 0.63672 1.5352 1.5352 1.5352z"/>
  <path d="m69.246 52.098h3.9688c0.89453 0 1.5352-0.76953 1.5352-1.5352v-3.9688c0-0.89453-0.76953-1.5352-1.5352-1.5352h-3.9688c-0.89453 0-1.5352 0.76953-1.5352 1.5352v3.9688c-0.125 0.76562 0.64062 1.5352 1.5352 1.5352z"/>
  <path d="m87.551 44.93h-3.9688c-0.89453 0-1.5352 0.76953-1.5352 1.5352v3.9688c0 0.89453 0.76953 1.5352 1.5352 1.5352h3.9688c0.89453 0 1.5352-0.76953 1.5352-1.5352v-3.9688c0.12891-0.89844-0.63672-1.5352-1.5352-1.5352z"/>
  <path d="m102.02 44.93h-3.9688c-0.89453 0-1.5352 0.76953-1.5352 1.5352v3.9688c0 0.89453 0.76953 1.5352 1.5352 1.5352h3.9688c0.89453 0 1.5352-0.76953 1.5352-1.5352v-3.9688c0-0.89844-0.64062-1.5352-1.5352-1.5352z"/>
  <path d="m29.953 59.266h-3.9688c-0.89453 0-1.5352 0.76953-1.5352 1.5352v3.9688c0 0.89453 0.76953 1.5352 1.5352 1.5352h3.9688c0.89453 0 1.5352-0.76953 1.5352-1.5352v-3.9688c0.12891-0.76953-0.64062-1.5352-1.5352-1.5352z"/>
  <path d="m87.551 59.266h-47.102c-0.89453 0-1.5352 0.76953-1.5352 1.5352v3.9688c0 0.89453 0.76953 1.5352 1.5352 1.5352h47.234c0.89453 0 1.5352-0.76953 1.5352-1.5352v-3.9688c-0.003906-0.76953-0.76953-1.5352-1.668-1.5352z"/>
  <path d="m102.02 59.266h-3.9688c-0.89453 0-1.5352 0.76953-1.5352 1.5352v3.9688c0 0.89453 0.76953 1.5352 1.5352 1.5352h3.9688c0.89453 0 1.5352-0.76953 1.5352-1.5352v-3.9688c0-0.76953-0.64062-1.5352-1.5352-1.5352z"/>
 </g>
</svg>
